<svg xmlns="http://www.w3.org/2000/svg" xmlns:xlink="http://www.w3.org/1999/xlink" width="18.5" height="18.5" viewBox="0 0 18.5 18.5"><defs><style>.a{fill:url(#a);}</style><linearGradient id="a" x1="0.5" x2="0.5" y2="1" gradientUnits="objectBoundingBox"><stop offset="0" stop-color="#16e6d6"/><stop offset="1" stop-color="#00d0cb"/></linearGradient></defs><path class="a" d="M16.848,7.6H11.232a.33.33,0,0,1-.33-.33V1.652a1.652,1.652,0,1,0-3.3,0V7.268a.33.33,0,0,1-.33.33H1.652a1.652,1.652,0,1,0,0,3.3H7.268a.33.33,0,0,1,.33.33v5.616a1.652,1.652,0,1,0,3.3,0V11.232a.33.33,0,0,1,.33-.33h5.616a1.652,1.652,0,1,0,0-3.3Zm0,0"/></svg>